<?xml version="1.0" encoding="UTF-8"?>
<svg version="1.1" xmlns="http://www.w3.org/2000/svg" width="1024" height="1024">
<path d="M0 0 C23.09185103 20.10127311 37.45103896 46.78616211 40.73046875 77.3203125 C40.83796669 79.04814525 40.92098672 80.77766115 40.98046875 82.5078125 C41.02042969 83.48363281 41.06039062 84.45945312 41.1015625 85.46484375 C41.77326176 117.50884947 30.59062576 147.49394206 8.60546875 170.921875 C-2.82610932 182.1833403 -2.82610932 182.1833403 -9.01953125 183.5078125 C-10.49461461 161.44459979 -10.49461461 161.44459979 -7.296875 155.078125 C-5.01953125 152.7578125 -5.01953125 152.7578125 -2.53515625 150.6796875 C2.20411976 146.58801443 4.92676962 140.90379953 7.98046875 135.5078125 C8.45355469 134.69828125 8.92664063 133.88875 9.4140625 133.0546875 C20.82936254 112.14441827 22.18111815 85.20218931 15.98046875 62.5078125 C12.08607948 50.20319958 6.29074872 39.36339246 -2.01953125 29.5078125 C-2.6640625 28.70601563 -3.30859375 27.90421875 -3.97265625 27.078125 C-19.32599241 8.82471423 -42.81918302 -1.76821038 -66.30541992 -4.09350586 C-90.23165087 -5.98776219 -114.97917328 0.22733965 -133.67578125 15.70703125 C-136.17554711 17.92444404 -138.60337435 20.19996608 -141.01953125 22.5078125 C-141.6228125 23.03632813 -142.22609375 23.56484375 -142.84765625 24.109375 C-157.09238023 37.08938049 -165.15370491 56.8235274 -168.01953125 75.5078125 C-168.17292969 76.43078125 -168.32632813 77.35375 -168.484375 78.3046875 C-171.67374691 103.67632026 -163.01717475 129.13078272 -147.87890625 149.2734375 C-146.03473493 151.56932352 -146.03473493 151.56932352 -143.78515625 153.6796875 C-142.01953125 155.5078125 -142.01953125 155.5078125 -142.01953125 157.5078125 C-141.42914063 157.77335938 -140.83875 158.03890625 -140.23046875 158.3125 C-137.96237073 159.53871554 -136.48601027 160.84132838 -134.64453125 162.6328125 C-122.40390423 173.53355641 -105.17853922 180.62707286 -89.01953125 182.5078125 C-85.41549566 182.17534462 -85.41549566 182.17534462 -82.01953125 181.5078125 C-75.72117901 180.38718311 -70.61775199 179.93997371 -65.01953125 183.5078125 C-61.3621419 186.62712112 -59.38257583 189.68032458 -58.44140625 194.41796875 C-58.08845927 200.76299292 -58.99161639 205.14545441 -63.24609375 209.94921875 C-66.99353723 213.24267679 -70.58771402 214.32558122 -75.45703125 214.9453125 C-79.86690563 214.40374898 -83.47860737 213.23833937 -87.01953125 210.5078125 C-87.55707031 209.51910156 -88.09460938 208.53039062 -88.6484375 207.51171875 C-92.06382474 203.18481135 -95.51625441 203.00607727 -100.76953125 202.0703125 C-130.0734547 195.96984871 -155.17867457 178.21146472 -171.58203125 153.2578125 C-188.87467453 125.07866425 -194.47779997 92.83373264 -187.01953125 60.5078125 C-179.81179752 32.10333517 -162.08023789 6.10611626 -136.88671875 -9.28125 C-93.81227941 -34.3439401 -38.93191645 -32.13268137 0 0 Z M-76.01953125 192.5078125 C-78.32240918 193.19921601 -78.32240918 193.19921601 -80.01953125 194.5078125 C-80.18640573 196.92427032 -80.18640573 196.92427032 -80.01953125 199.5078125 C-79.35953125 200.1678125 -78.69953125 200.8278125 -78.01953125 201.5078125 C-74.92026306 201.18582284 -74.92026306 201.18582284 -72.01953125 200.5078125 C-71.68953125 198.8578125 -71.35953125 197.2078125 -71.01953125 195.5078125 C-73.27120971 193.78965812 -73.27120971 193.78965812 -76.01953125 192.5078125 Z " fill="#6E3EFE" transform="translate(331.01953125,411.4921875)"/>
<path d="M0 0 C0.56460938 0.4228125 1.12921875 0.845625 1.7109375 1.28125 C15.96645099 12.37603878 23.61541435 30.55960817 26.6875 47.875 C28.87090693 70.8240005 22.87178082 91.90849787 8.375 109.875 C4.29210899 114.78879515 4.29210899 114.78879515 1.87915039 116.53344727 C-1.07096998 120.40574375 -0.39886653 124.18736391 -0.21484375 128.91015625 C-0.17888394 130.88866911 -0.14308141 132.86718483 -0.10742188 134.84570312 C-0.0264117 137.9622555 0.06298236 141.07840796 0.1574707 144.19458008 C0.24170173 147.2038817 0.29588522 150.21264849 0.34765625 153.22265625 C0.38601089 154.15707047 0.42436554 155.09148468 0.46388245 156.05421448 C0.50087876 158.47018987 0.49699359 160.63542846 0 163 C-2.37011719 165.1418457 -2.37011719 165.1418457 -5 166 C-9.59002046 165.0686915 -12.76541565 161.90032095 -16.1875 158.875 C-17.34284151 157.87525124 -18.49909995 156.87656118 -19.65625 155.87890625 C-20.50703125 155.14244873 -20.50703125 155.14244873 -21.375 154.39111328 C-24.38324541 151.8158455 -27.4839136 149.36150199 -30.60546875 146.92578125 C-32.27763999 145.58095185 -33.9028393 144.17653119 -35.48828125 142.73046875 C-40.78217961 137.899054 -40.78217961 137.899054 -47.5625 136.625 C-48.38492188 136.69332031 -49.20734375 136.76164063 -50.0546875 136.83203125 C-69.97507179 137.96807439 -89.48679706 130.12048746 -104.4375 117.3359375 C-120.26345507 102.90922846 -128.46782617 83.78563947 -130.2890625 62.64453125 C-130.75731252 45.51083723 -126.07040363 27.85087372 -115.61328125 14.1484375 C-112.93604298 10.58310808 -110.85804771 7.4340447 -110.125 3 C-108.90543607 -2.43167128 -105.51260391 -4.99159739 -101 -8 C-96.40273356 -9.38987125 -93.20876406 -8.90779097 -88.8984375 -7.06640625 C-85.00805844 -4.88106986 -82.65982207 -2.13083715 -81.3359375 2.14453125 C-80.62646573 6.22747171 -80.72097058 9.1838555 -82.6875 12.875 C-85.67955718 16.91832051 -87.488713 18.54376242 -92.3125 20 C-99.20687669 22.82580675 -102.52649822 31.55092181 -105.3125 38 C-110.65566344 52.51597621 -110.32593617 67.74147381 -104.78125 82.171875 C-98.54959729 95.53530802 -89.07064233 106.25342248 -75.07421875 111.56640625 C-65.31755477 115.00424408 -56.65500635 116.21948414 -46.39257812 116.4296875 C-39.9035913 116.66299939 -35.51444472 117.60289604 -30.65625 122.234375 C-29.9446875 123.06453125 -29.233125 123.8946875 -28.5 124.75 C-27.73816406 125.62914062 -26.97632813 126.50828125 -26.19140625 127.4140625 C-25.46824219 128.26742187 -24.74507813 129.12078125 -24 130 C-23.36964844 130.72960937 -22.73929687 131.45921875 -22.08984375 132.2109375 C-20.71806504 133.79999558 -19.35755892 135.39877666 -18 137 C-18.01160156 135.83984375 -18.02320313 134.6796875 -18.03515625 133.484375 C-18.0876574 126.38911049 -18.13190294 119.27647091 -17.8125 112.1875 C-17.77769531 111.29417969 -17.74289062 110.40085937 -17.70703125 109.48046875 C-16.7074828 105.97376562 -14.6676216 104.43449134 -12 102 C0.08692939 88.88305402 6.50781184 73.7030855 6.20703125 55.8203125 C5.15865515 41.53866071 -0.11811819 26.76071823 -11 17 C-24.17666929 6.24169026 -39.95894164 0.70868999 -57 2 C-61.68711525 2.55449189 -66.34390754 3.2285764 -71 4 C-71.17015625 3.40832031 -71.3403125 2.81664062 -71.515625 2.20703125 C-72.9947109 -2.6157329 -74.41422998 -6.29855998 -78 -10 C-78.66 -10.33 -79.32 -10.66 -80 -11 C-79.67 -11.99 -79.34 -12.98 -79 -14 C-53.29270078 -25.08073242 -20.8740466 -17.80724354 0 0 Z " fill="#6E3EFE" transform="translate(308,442)"/>
<path d="M0 0 C6.93 0.33 13.86 0.66 21 1 C22.05049592 12.16112798 22.14657852 23.21242439 22.1328125 34.4140625 C22.13348742 36.36127739 22.134459 38.30849219 22.13571167 40.25570679 C22.13717631 44.30833754 22.13507174 48.36094607 22.13037109 52.41357422 C22.12463621 57.61101329 22.12798418 62.80840114 22.13394356 68.00583839 C22.13755014 72.01374704 22.13641079 76.02164345 22.13381577 80.02955246 C22.13314874 81.94734071 22.13396711 83.86513007 22.13629532 85.78291702 C22.13882753 88.45117417 22.1349749 91.11934683 22.12939453 93.78759766 C22.13141876 94.57925323 22.13344299 95.37090881 22.13552856 96.18655396 C22.1230818 99.39017346 22.0206371 101.93808869 21 105 C14.07 105 7.14 105 0 105 C-0.33 103.35 -0.66 101.7 -1 100 C-1.61875 100.598125 -2.2375 101.19625 -2.875 101.8125 C-10.08132929 106.85693051 -18.37732135 107.88944536 -27 107 C-35.67816152 105.43636729 -42.54396559 101.45603441 -48.75 95.25 C-56.25064535 84.4157345 -59.18120749 74.1577543 -58 61 C-55.78581811 49.54459189 -50.73669966 39.8599694 -40.98046875 33.1796875 C-32.44044728 28.09273191 -23.00529286 26.56327091 -13.23828125 28.56640625 C-8.69367029 29.86389607 -5.03788709 31.53184465 -1 34 C-1.00523682 33.04109863 -1.01047363 32.08219727 -1.01586914 31.09423828 C-1.03394679 27.54216441 -1.04544215 23.99009463 -1.05493164 20.43798828 C-1.05996552 18.89956987 -1.06679308 17.36115625 -1.07543945 15.82275391 C-1.08754639 13.61359474 -1.09323769 11.40449874 -1.09765625 9.1953125 C-1.10281754 8.50567413 -1.10797882 7.81603577 -1.11329651 7.10549927 C-1.11387171 2.22774341 -1.11387171 2.22774341 0 0 Z M-33.375 55.5625 C-36.78128851 60.67193277 -36.58449122 66.05767259 -36 72 C-34.38067164 77.31562136 -31.77494489 81.04408173 -27 84 C-21.27007547 86.49127154 -16.4231891 86.72270552 -10.4375 84.9375 C-5.97934594 82.42472226 -2.02827527 79.07236188 -0.35546875 74.07421875 C0.75119921 67.61662879 0.74321814 61.52745327 -2.625 55.76171875 C-5.96064644 51.48792175 -9.57371478 49.36410389 -14.94140625 48.55859375 C-22.98133705 48.24665651 -27.80862358 49.55667281 -33.375 55.5625 Z " fill="#F2EDFB" transform="translate(798,517)"/>
<path d="M0 0 C9.22879838 10.68597707 9.22879838 10.68597707 9.57421875 15.5625 C9.50847656 16.284375 9.44273437 17.00625 9.375 17.75 C6.96257287 18.92620825 4.54572309 20.0910956 2.125 21.25 C1.44308594 21.58386719 0.76117187 21.91773438 0.05859375 22.26171875 C-3.4770992 23.94374744 -5.64429286 24.75 -9.625 24.75 C-11.15234375 22.921875 -11.15234375 22.921875 -12.5625 20.5 C-16.26584207 14.5931694 -20.67681688 10.44707836 -27.625 8.75 C-36.57580304 7.88417069 -45.55015139 8.19600507 -53.1015625 13.484375 C-58.74571737 18.22767127 -63.24923711 23.30321006 -64.625 30.75 C-65.35586686 42.27612975 -65.19513624 51.97579858 -58 61.5625 C-52.41160283 67.38547186 -46.35461754 69.93555574 -38.35986328 70.34179688 C-29.55709366 70.47257868 -22.35242907 69.27921402 -15.76171875 62.96484375 C-13.44902799 60.36513647 -11.55558427 57.64587641 -9.625 54.75 C-4.8378572 55.32665391 -1.37371176 57.39082996 2.6875 59.8125 C3.33267578 60.18955078 3.97785156 60.56660156 4.64257812 60.95507812 C6.22378152 61.88037493 7.7999146 62.81432681 9.375 63.75 C5.34457435 74.40450485 -1.43950965 82.10169691 -11.65625 87.2890625 C-14.6156653 88.56699183 -17.57782938 89.70027734 -20.625 90.75 C-21.31207031 90.99621094 -21.99914062 91.24242187 -22.70703125 91.49609375 C-34.80947213 95.19052307 -49.38293034 92.75151065 -60.75 87.75 C-73.64886351 80.6832959 -82.46810718 69.49767483 -86.86328125 55.64453125 C-90.91850557 40.23467885 -88.74501362 23.9988315 -81.08203125 10.015625 C-72.93965199 -2.64544731 -61.14639858 -9.90334655 -46.625 -13.25 C-45.93019531 -13.41242187 -45.23539062 -13.57484375 -44.51953125 -13.7421875 C-28.06845055 -16.61849585 -12.3693341 -10.60228637 0 0 Z " fill="#F1ECFB" transform="translate(511.625,531.25)"/>
<path d="M0 0 C6.96023579 5.46352343 13.43569345 11.22409891 15.8125 20 C15.874375 20.66 15.93625 21.32 16 22 C12.55999076 24.12269172 9.09197124 26.0218773 5.4375 27.75 C4.50808594 28.19859375 3.57867187 28.6471875 2.62109375 29.109375 C-0.24740694 30.08406674 -1.29302019 30.31401312 -4 29 C-5.74609375 27.07421875 -5.74609375 27.07421875 -7.4375 24.6875 C-12.01619107 18.56641088 -16.50513521 14.81136837 -24 13 C-32.65240449 11.95208194 -40.98465583 13.68670819 -48.25 18.5625 C-53.48628143 22.80038294 -57.88437723 29.26988438 -59 36 C-59.75040654 47.03466668 -59.02926887 56.02626541 -53.375 65.8125 C-45.03499164 73.49408665 -37.52115472 75.32534875 -26.48046875 75.2109375 C-18.65743794 74.73681442 -13.3541902 71.65239826 -8 66 C-6.50303255 64.05261757 -5.25976044 62.11639754 -4 60 C0.7871428 60.57665391 4.25128824 62.64082996 8.3125 65.0625 C8.95767578 65.43955078 9.60285156 65.81660156 10.26757812 66.20507812 C11.84878152 67.13037493 13.4249146 68.06432681 15 69 C10.84280869 80.23241112 3.54977487 87.41595151 -7.16796875 92.50390625 C-20.72427831 98.2996001 -36.01926266 99.44547031 -50.09765625 94.3359375 C-57.25269801 91.0424997 -63.78310611 86.96216444 -69 81 C-69.71736328 80.25169922 -69.71736328 80.25169922 -70.44921875 79.48828125 C-80.51477822 68.61139204 -83.4152985 55.23673273 -83.27734375 40.828125 C-82.18183632 25.70703647 -75.83732237 13.39301147 -65 3 C-46.81478132 -12.31068328 -19.59564851 -13.76236277 0 0 Z " fill="#F1ECFB" transform="translate(506,407)"/>
<path d="M0 0 C7.26 0 14.52 0 22 0 C22.33 11.22 22.66 22.44 23 34 C24.65 32.68 26.3 31.36 28 30 C36.44129524 26.19787038 45.98329275 25.48360668 54.69921875 28.765625 C62.24854553 32.81585804 68.15036203 38.92544746 71 47 C73.00517499 53.80763854 73.26793414 60.31912591 73.1953125 67.37890625 C73.1924826 68.43158188 73.18965271 69.48425751 73.18673706 70.5688324 C73.17562562 73.90017516 73.15053798 77.23123977 73.125 80.5625 C73.11495852 82.83398047 73.10583472 85.10546519 73.09765625 87.37695312 C73.07742548 92.9181597 73.03825934 98.45877192 73 104 C65.74 104 58.48 104 51 104 C50.97421875 100.74898437 50.9484375 97.49796875 50.921875 94.1484375 C50.88343454 90.99096105 50.83828062 87.83364679 50.79248047 84.67626953 C50.7642994 82.48624447 50.74307066 80.29611823 50.72900391 78.10595703 C50.70753523 74.95292473 50.66086325 71.80110515 50.609375 68.6484375 C50.60814636 67.67321136 50.60691772 66.69798523 50.60565186 65.69320679 C50.47996978 59.826139 49.86089583 56.49363884 46 52 C42.05077528 48.7979259 39.01017972 48.48170555 34 49 C29.45674068 50.51441977 26.39164669 51.74818367 24 56 C23.07076023 58.78771931 22.85132662 60.58234248 22.79467773 63.47143555 C22.77473251 64.37214279 22.75478729 65.27285004 22.73423767 66.20085144 C22.71752518 67.16968765 22.70081268 68.13852386 22.68359375 69.13671875 C22.66281265 70.13129593 22.64203156 71.12587311 22.62062073 72.15058899 C22.55520588 75.32948867 22.4962776 78.50847134 22.4375 81.6875 C22.39430712 83.84180548 22.35069258 85.99610254 22.30664062 88.15039062 C22.19873877 93.43350991 22.09960509 98.71669167 22 104 C14.74 104 7.48 104 0 104 C0 69.68 0 35.36 0 0 Z " fill="#EFEAFB" transform="translate(527,518)"/>
<path d="M0 0 C7.26 0 14.52 0 22 0 C22.33 10.56 22.66 21.12 23 32 C25.64 30.35 28.28 28.7 31 27 C39.55153009 24.24682446 47.70672549 24.6067575 56 28 C64.61187082 32.93315023 69.01410564 39.67784157 72 49 C73.00659547 53.95693788 73.22610527 58.79848902 73.3515625 63.8359375 C73.38629166 65.09321152 73.38629166 65.09321152 73.42172241 66.37588501 C73.46916009 68.14246094 73.51441723 69.90909661 73.55761719 71.67578125 C73.62461648 74.35963711 73.70252512 77.0430281 73.78125 79.7265625 C73.8261851 81.45050365 73.87047693 83.17446171 73.9140625 84.8984375 C73.93796051 85.69140228 73.96185852 86.48436707 73.98648071 87.30136108 C74.0033493 88.06220001 74.0202179 88.82303894 74.03759766 89.60693359 C74.05456696 90.26390228 74.07153625 90.92087097 74.08901978 91.5977478 C73.95991478 95.08172385 73.43243065 98.54055482 73 102 C65.74 102 58.48 102 51 102 C50.97421875 98.82117188 50.9484375 95.64234375 50.921875 92.3671875 C50.88343252 89.27920784 50.83827928 86.19139391 50.79248047 83.10351562 C50.76430256 80.96199491 50.74307225 78.82037082 50.72900391 76.67871094 C50.70753075 73.59516593 50.66085683 70.51285982 50.609375 67.4296875 C50.60814636 66.47633514 50.60691772 65.52298279 50.60565186 64.54074097 C50.47818446 58.71975149 49.78905534 55.48035592 46 51 C43.09354036 48.23944696 41.11375382 47.56871301 37.125 47.5625 C32.35746453 47.71697096 29.61449656 48.73813725 26 52 C22.1635029 56.70976185 22.52692981 61.53459541 22.48828125 67.33203125 C22.47033005 68.32377853 22.45237885 69.31552582 22.43388367 70.33732605 C22.37983032 73.49567451 22.34590048 76.65387225 22.3125 79.8125 C22.27932258 81.95770324 22.24483253 84.10288661 22.20898438 86.24804688 C22.12164244 91.49871903 22.06153029 96.74870834 22 102 C14.74 102 7.48 102 0 102 C-1.14334414 99.71331173 -1.11091271 98.50092691 -1.08229065 95.96310425 C-1.07173141 94.69685715 -1.07173141 94.69685715 -1.06095886 93.4050293 C-1.04801285 92.477146 -1.03506683 91.5492627 -1.02172852 90.59326172 C-1.01212097 89.61761261 -1.00251343 88.6419635 -0.99261475 87.63674927 C-0.95954463 84.40099043 -0.91924283 81.16536326 -0.87890625 77.9296875 C-0.85461296 75.69052601 -0.83076902 73.45135961 -0.80735779 71.21218872 C-0.74443811 65.31022555 -0.67539382 59.4083491 -0.60510254 53.50646973 C-0.53449021 47.48742635 -0.46963079 41.46832133 -0.40429688 35.44921875 C-0.27518292 23.63274297 -0.13907168 11.81636278 0 0 Z " fill="#EFEAFB" transform="translate(527,400)"/>
<path d="M0 0 C6.85023218 5.59343555 9.39955373 12.21656767 10.42428589 20.83203125 C10.80501131 25.30001222 10.74609397 29.76898326 10.72265625 34.25 C10.7212413 35.28189453 10.71982635 36.31378906 10.71836853 37.37695312 C10.71280642 40.64716589 10.70026102 43.9173082 10.6875 47.1875 C10.6824801 49.41536359 10.67791805 51.64322826 10.67382812 53.87109375 C10.66284942 59.30991955 10.64614938 64.74870474 10.625 70.1875 C7.33349875 70.27435287 4.0422904 70.32783895 0.75 70.375 C-0.18714844 70.40013672 -1.12429688 70.42527344 -2.08984375 70.45117188 C-2.98574219 70.46083984 -3.88164063 70.47050781 -4.8046875 70.48046875 C-5.63210449 70.4961792 -6.45952148 70.51188965 -7.31201172 70.52807617 C-7.99279785 70.41568604 -8.67358398 70.3032959 -9.375 70.1875 C-10.035 69.1975 -10.695 68.2075 -11.375 67.1875 C-12.11105469 67.53683594 -12.84710937 67.88617188 -13.60546875 68.24609375 C-14.58128906 68.70113281 -15.55710937 69.15617187 -16.5625 69.625 C-17.52542969 70.07746094 -18.48835937 70.52992188 -19.48046875 70.99609375 C-28.29206812 74.62300037 -36.33109153 73.48280452 -45.17578125 70.5859375 C-51.32843955 67.89649712 -55.62750323 63.75413588 -59.375 58.25 C-61.96450506 50.31964077 -61.7277176 43.89217652 -58.375 36.1875 C-54.72395978 30.32370813 -49.83946588 27.31175947 -43.375 25.1875 C-37.81171072 24.60093464 -32.33375986 24.71069883 -26.75 24.875 C-25.25394385 24.90013426 -23.75784666 24.92293832 -22.26171875 24.94335938 C-18.6319457 24.99790325 -15.00374299 25.08388539 -11.375 25.1875 C-13.58491618 19.09600054 -13.58491618 19.09600054 -18.375 15.1875 C-25.30418601 14.07434309 -31.63940434 14.0626548 -37.5 18.1875 C-38.16257812 18.744375 -38.82515625 19.30125 -39.5078125 19.875 C-41.375 21.1875 -41.375 21.1875 -45.375 21.1875 C-47.30406317 19.22336295 -48.95084938 17.34832231 -50.625 15.1875 C-51.08390625 14.61515625 -51.5428125 14.0428125 -52.015625 13.453125 C-53.14624743 12.03984696 -54.26207817 10.61475853 -55.375 9.1875 C-42.74997689 -6.83398951 -17.25194116 -12.03844246 0 0 Z M-38.375 44.1875 C-38.80281673 48.35740664 -38.80281673 48.35740664 -37.0625 52 C-32.70180261 55.06863891 -27.46830973 54.61724801 -22.375 54.1875 C-17.12035983 52.40290523 -14.42908051 49.67879487 -11.375 45.1875 C-11.19737603 42.55692073 -11.19737603 42.55692073 -11.375 40.1875 C-14.39638567 40.10600408 -17.41553905 40.04676579 -20.4375 40 C-21.70883789 39.96229492 -21.70883789 39.96229492 -23.00585938 39.92382812 C-28.43802282 39.86090731 -34.25831895 40.07081895 -38.375 44.1875 Z " fill="#F3EEFC" transform="translate(666.375,431.8125)"/>
<path d="M0 0 C0.96873047 0.38285156 0.96873047 0.38285156 1.95703125 0.7734375 C8.15290406 3.71613962 11.42403764 9.49786143 14.16015625 15.578125 C15.1686428 18.48631877 15.14214321 20.94392107 15 24 C16.485 24.495 16.485 24.495 18 25 C17.34 25 16.68 25 16 25 C16 40.84 16 56.68 16 73 C9.73 73 3.46 73 -3 73 C-3.66 71.68 -4.32 70.36 -5 69 C-5.72703125 69.50660156 -5.72703125 69.50660156 -6.46875 70.0234375 C-15.0370317 75.72464032 -23.21082853 77.12559544 -33.375 75.375 C-40.92254554 73.50770067 -47.97293929 69.48952435 -52.1015625 62.76953125 C-55.42025865 56.23314274 -55.57167833 50.05734268 -54 43 C-50.91819704 35.86068811 -46.08084807 31.6225249 -38.92892456 28.62850952 C-35.78725534 27.60484636 -32.81970282 27.66614478 -29.53515625 27.70703125 C-28.51789711 27.71339851 -28.51789711 27.71339851 -27.48008728 27.71989441 C-25.34046598 27.73652059 -23.20183053 27.77413826 -21.0625 27.8125 C-19.60092518 27.82756778 -18.13933542 27.8412525 -16.67773438 27.85351562 C-13.11817603 27.88637023 -9.55918444 27.93803759 -6 28 C-6.61697319 26.51746733 -7.24383896 25.03904826 -7.875 23.5625 C-8.22304688 22.73878906 -8.57109375 21.91507812 -8.9296875 21.06640625 C-9.8244937 18.84253285 -9.8244937 18.84253285 -12 18 C-20.34811269 17.33171276 -26.91758996 17.32293677 -34 22 C-35.02080237 22.97875559 -36.02681148 23.97388884 -37 25 C-42.96661033 23.01112989 -47.13000945 16.40233516 -50 11 C-36.02393493 -2.21442665 -18.60319592 -7.68175056 0 0 Z M-32 47 C-32.50031206 50.41571853 -32.50031206 50.41571853 -32 54 C-29.11728778 56.97880263 -26.16680999 57.24129365 -22.1875 57.4375 C-16.07725695 57.24598492 -11.4509775 55.29779141 -7 51.125 C-5.69141066 48.34424765 -5.93373502 46.03990605 -6 43 C-9.04221065 42.91867358 -12.0822238 42.85934626 -15.125 42.8125 C-15.9809375 42.78736328 -16.836875 42.76222656 -17.71875 42.73632812 C-23.1017099 42.67421705 -27.93152538 42.93152538 -32 47 Z " fill="#F0EBFB" transform="translate(813,429)"/>
<path d="M0 0 C7.59 0 15.18 0 23 0 C29 15 35 30 41 45 C43.63294256 42.36705744 44.5866183 39.34959403 45.8984375 35.9375 C46.17466949 35.23157715 46.45090149 34.5256543 46.73550415 33.79833984 C47.62028455 31.5341201 48.49779233 29.26716295 49.375 27 C49.9578421 25.50371481 50.54117025 24.00761885 51.125 22.51171875 C51.95711223 20.37949881 52.78860595 18.24706997 53.61605835 16.11303711 C55.70606429 10.72566549 57.85347295 5.36631762 60 0 C67.92 0 75.84 0 84 0 C83.19546617 4.02266915 82.30152312 6.9760025 80.7265625 10.6875 C80.2406665 11.83935791 79.75477051 12.99121582 79.25415039 14.17797852 C78.7111696 15.45201523 78.16811709 16.72602138 77.625 18 C77.05741622 19.34087613 76.49029085 20.68194637 75.92358398 22.02319336 C74.6625227 25.00589145 73.39871673 27.9874086 72.13330078 30.96826172 C69.78734609 36.49737328 67.45398796 42.03177413 65.12109375 47.56640625 C56.28552672 68.52234589 56.28552672 68.52234589 53.05126953 76.14208984 C51.76056433 79.18638054 50.48941355 82.23716923 49.24169922 85.29931641 C48.97514023 85.94480942 48.70858124 86.59030243 48.4339447 87.25535583 C47.74457863 88.9263904 47.06411371 90.60108976 46.38452148 92.27612305 C43.63645424 97.68260977 39.49983196 100.80442819 34.125 103.375 C25.5578941 105.08842118 18.2428464 105.6062453 10 102 C7.96879293 98.95318939 7.75340125 98.39881676 7.8046875 94.98828125 C7.81113281 94.23095703 7.81757812 93.47363281 7.82421875 92.69335938 C7.84097656 91.90767578 7.85773437 91.12199219 7.875 90.3125 C7.88402344 89.51521484 7.89304687 88.71792969 7.90234375 87.89648438 C7.92588415 85.930861 7.96175453 83.96539225 8 82 C9.85546875 80.91796875 9.85546875 80.91796875 12 80 C13.69036558 80.95939668 15.35394174 81.96642853 17 83 C20.55107891 83.98407238 20.55107891 83.98407238 24 84 C27.57229299 81.1805778 29.15498373 77.39481438 30 73 C29.34748148 70.13467604 28.70802528 68.19583774 27.46875 65.6171875 C27.16652023 64.93231262 26.86429047 64.24743774 26.55290222 63.54180908 C25.56011543 61.3074222 24.53055712 59.09218439 23.5 56.875 C22.80432886 55.32657664 22.1114057 53.77691594 21.42114258 52.22607422 C20.00240682 49.04659319 18.57030218 45.87368098 17.12744141 42.70507812 C14.17360886 36.20024955 11.35207948 29.63897809 8.52880859 23.07672119 C7.70260001 21.16002996 6.87181041 19.24540111 6.0390625 17.33154297 C5.53503906 16.17283691 5.03101563 15.01413086 4.51171875 13.8203125 C4.07303467 12.81242676 3.63435059 11.80454102 3.18237305 10.76611328 C2.79218994 9.8532959 2.40200684 8.94047852 2 8 C1.6181958 7.11683105 1.2363916 6.23366211 0.84301758 5.32373047 C0 3 0 3 0 0 Z " fill="#F0EBFB" transform="translate(678,427)"/>
<path d="M0 0 C8.81820855 6.23062612 15.63112635 14.9080072 17.6484375 25.6796875 C18.45351557 39.70662458 17.19555775 50.64951944 7.6484375 61.6796875 C-1.40329135 70.46271939 -12.08592039 73.99457227 -24.51953125 73.828125 C-35.19681693 73.26848796 -44.69252604 68.97060592 -52.53125 61.703125 C-60.5662564 52.77150844 -63.43202981 42.50838222 -63.3515625 30.6796875 C-61.91451877 19.15516035 -56.49311414 10.42299851 -47.49609375 3.1875 C-33.4375142 -7.10676044 -15.30150887 -8.59121262 0 0 Z M-36.921875 21.3984375 C-40.72154567 26.52256481 -42.18026997 31.23418499 -41.3515625 37.6796875 C-39.35228725 43.59058825 -35.93451794 48.5054154 -30.5234375 51.7890625 C-25.69577157 53.76875285 -20.01024167 53.38687826 -15.03125 52.0625 C-9.58626751 49.72302083 -6.65076237 46.07737989 -4.3515625 40.6796875 C-2.43240904 34.63614214 -3.57430208 29.2878234 -6.3515625 23.6796875 C-9.94698809 19.20969893 -13.87676683 16.1585669 -19.67578125 15.359375 C-26.44511743 15.04837946 -32.21712816 16.24896334 -36.921875 21.3984375 Z " fill="#F2EDFB" transform="translate(667.3515625,550.3203125)"/>
<path d="M0 0 C2.0513822 1.86914095 2.37536714 2.83783667 2.71484375 5.5625 C1.14749342 7.98823098 -0.39445798 10.10312361 -2.22265625 12.3125 C-2.70412109 12.91449219 -3.18558594 13.51648438 -3.68164062 14.13671875 C-4.87150999 15.62111023 -6.07688999 17.09304438 -7.28515625 18.5625 C-9.86683441 17.297194 -12.37004889 15.95774214 -14.84765625 14.5 C-19.16280173 12.0678271 -21.97427028 11.42452161 -26.84765625 11.4375 C-28.30365234 11.43363281 -28.30365234 11.43363281 -29.7890625 11.4296875 C-32.28468578 11.39599047 -32.28468578 11.39599047 -34.28515625 12.5625 C-34.28515625 13.8825 -34.28515625 15.2025 -34.28515625 16.5625 C-32.32697014 17.16714367 -30.36859799 17.77118482 -28.41015625 18.375 C-27.22292969 18.74367188 -26.03570313 19.11234375 -24.8125 19.4921875 C-22.70906718 20.13043843 -20.5988017 20.74769163 -18.4765625 21.3203125 C-9.13242422 23.85678685 -2.21204371 27.94368261 2.8203125 36.42578125 C4.92399052 41.45072394 4.47636349 47.18615046 2.83984375 52.29296875 C-0.40679588 59.352274 -4.82267712 64.1394117 -11.91015625 67.375 C-23.87259425 71.58400596 -36.06663687 69.97077777 -47.47265625 64.8125 C-51.96989469 62.42887052 -55.60908476 59.04303577 -59.28515625 55.5625 C-58.00397796 50.86484629 -55.28987732 48.34447339 -51.84375 45.11328125 C-50.1848508 43.62739775 -50.1848508 43.62739775 -49.28515625 41.5625 C-45.283556 42.13517982 -42.61008864 43.38449092 -39.22265625 45.5625 C-34.58170212 48.53728724 -31.22185149 49.70347551 -25.72265625 49.75 C-24.57603516 49.77126953 -24.57603516 49.77126953 -23.40625 49.79296875 C-20.98362122 49.6948375 -20.98362122 49.6948375 -18.28515625 47.5625 C-18.86460557 45.56386244 -18.86460557 45.56386244 -20.28515625 43.5625 C-24.47156648 41.91498467 -28.68879598 41.02869669 -33.09765625 40.1875 C-43.51670271 37.96111428 -49.90028877 35.34169279 -56.28515625 26.5625 C-58.9539694 21.22487369 -58.03570644 13.19994738 -56.44921875 7.625 C-53.03237626 0.10336016 -47.74263241 -4.2054111 -40.16015625 -7.25 C-25.72820186 -12.36002677 -12.27013001 -7.93569041 0 0 Z " fill="#F0EAFB" transform="translate(884.28515625,554.4375)"/>
<path d="M0 0 C1.34384766 0.07250977 1.34384766 0.07250977 2.71484375 0.14648438 C3.65199219 0.20255859 4.58914063 0.25863281 5.5546875 0.31640625 C6.97201172 0.3947168 6.97201172 0.3947168 8.41796875 0.47460938 C10.7555294 0.60447386 13.09268295 0.73944495 15.4296875 0.87890625 C15.7596875 2.85890625 16.0896875 4.83890625 16.4296875 6.87890625 C17.1721875 6.26015625 17.9146875 5.64140625 18.6796875 5.00390625 C23.00091071 1.66477922 26.02084839 0.60497711 31.4921875 0.19140625 C32.53503906 0.10503906 33.57789063 0.01867187 34.65234375 -0.0703125 C37.4296875 -0.12109375 37.4296875 -0.12109375 40.4296875 0.87890625 C41.0896875 4.50890625 41.7496875 8.13890625 42.4296875 11.87890625 C41.7696875 11.87890625 41.1096875 11.87890625 40.4296875 11.87890625 C40.6153125 12.78640625 40.8009375 13.69390625 40.9921875 14.62890625 C41.39692326 17.63551479 41.25493481 19.06695245 40.4296875 21.87890625 C38.90988281 21.91757812 38.90988281 21.91757812 37.359375 21.95703125 C36.00777153 22.01334806 34.65621069 22.07069458 33.3046875 22.12890625 C32.63953125 22.14308594 31.974375 22.15726563 31.2890625 22.171875 C26.24414586 22.41917484 23.24247265 23.58554401 19.4296875 26.87890625 C16.014914 32.13690449 15.97487745 36.77424349 15.953125 42.8359375 C15.92975571 44.25129036 15.92975571 44.25129036 15.90591431 45.69523621 C15.85856379 48.69395188 15.83067136 51.69243585 15.8046875 54.69140625 C15.76822367 57.70806814 15.72768581 60.72459782 15.68203735 63.74113464 C15.65475664 65.61517075 15.63342899 67.48930442 15.61849976 69.36347961 C15.54038915 75.7682046 15.54038915 75.7682046 14.4296875 76.87890625 C12.86796005 76.96576228 11.30239406 76.98592844 9.73828125 76.9765625 C8.79404297 76.97333984 7.84980469 76.97011719 6.87695312 76.96679688 C5.88373047 76.95841797 4.89050781 76.95003906 3.8671875 76.94140625 C2.87009766 76.93689453 1.87300781 76.93238281 0.84570312 76.92773438 C-1.62636099 76.91590632 -4.09830768 76.89942474 -6.5703125 76.87890625 C-7.30528421 73.5840726 -7.69632245 70.5359925 -7.69970703 67.16235352 C-7.70285919 66.25272354 -7.70601135 65.34309357 -7.70925903 64.40589905 C-7.7072348 63.42890549 -7.70521057 62.45191193 -7.703125 61.4453125 C-7.70408173 60.41695786 -7.70503845 59.38860321 -7.70602417 58.3290863 C-7.70670461 56.14443908 -7.70485981 53.95978982 -7.70068359 51.77514648 C-7.69542649 48.51215754 -7.70058413 45.24931225 -7.70703125 41.98632812 C-7.71094237 28.25713931 -7.32110242 14.58723558 -6.5703125 0.87890625 C-4.11781157 -0.34734422 -2.72720815 -0.1553473 0 0 Z " fill="#F0EBFB" transform="translate(698.5703125,545.12109375)"/>
<path d="M0 0 C2.86555194 1.33765391 3.85318575 2.47749326 6 5 C7.27298235 9.11847231 7.29220314 11.20028616 5.8125 15.25 C3.48269125 18.78488224 1.62591945 20.38478724 -2.3125 21.875 C-6.18088777 22.05492501 -8.620186 20.81508529 -12 19 C-15.05725241 16.044656 -15.83125578 13.21860545 -16 9 C-12.99134091 0.9241256 -8.35665262 -1.51807703 0 0 Z " fill="#6E3EFF" transform="translate(233,488)"/>
<path d="M0 0 C3 2.4375 3 2.4375 5 5 C5.33 5.33 5.66 5.66 6 6 C6.55827735 10.42961043 6.5532434 13.9599024 4.4375 17.9375 C1.26191092 20.62453691 -0.865097 21.4486796 -5 22 C-9.52009136 21.26880875 -12.25870894 19.96592472 -15.0625 16.3125 C-16.23122248 12.18301391 -16.47778831 9.06600513 -15 5 C-10.8110724 -0.02671312 -6.47622145 -1.53854985 0 0 Z " fill="#6E3EFF" transform="translate(289,488)"/>
<path d="M0 0 C2.87029869 1.79393668 4.49131638 2.98263276 6 6 C6.52923678 10.4160905 6.54260204 13.93740434 4.5 17.9375 C1.20570533 20.6552931 -1.71916395 21.82678698 -6 22 C-9.3125 20.8125 -9.3125 20.8125 -12 19 C-12.598125 18.608125 -13.19625 18.21625 -13.8125 17.8125 C-15.78999163 14.79422331 -16.11735461 11.52754155 -16 8 C-12.84943426 0.53813377 -7.6756004 -1.27242573 0 0 Z " fill="#6E3EFF" transform="translate(261,488)"/>
<path d="M0 0 C0.33 0 0.66 0 1 0 C1.95441142 6.39356577 2.13143681 12.60405164 2.09765625 19.0625 C2.0962413 20.09439453 2.09482635 21.12628906 2.09336853 22.18945312 C2.08780642 25.45966589 2.07526102 28.7298082 2.0625 32 C2.0574801 34.22786359 2.05291805 36.45572826 2.04882812 38.68359375 C2.03784942 44.12241955 2.02114938 49.56120474 2 55 C-1.29150125 55.08685287 -4.5827096 55.14033895 -7.875 55.1875 C-9.28072266 55.22520508 -9.28072266 55.22520508 -10.71484375 55.26367188 C-12.05869141 55.27817383 -12.05869141 55.27817383 -13.4296875 55.29296875 C-14.67081299 55.31653442 -14.67081299 55.31653442 -15.93701172 55.34057617 C-16.95819092 55.17199097 -16.95819092 55.17199097 -18 55 C-18.66 54.01 -19.32 53.02 -20 52 C-21.98 52.495 -21.98 52.495 -24 53 C-21.525 50.525 -21.525 50.525 -19 48 C-17 50 -17 50 -17 54 C-11.06 54 -5.12 54 1 54 C0.67 36.18 0.34 18.36 0 0 Z " fill="#AF91ED" transform="translate(675,447)"/>
<path d="M0 0 C2 2 2 2 2 6 C7.94 6 13.88 6 20 6 C20 6.33 20 6.66 20 7 C16.87517438 7.08687496 13.75065754 7.14034568 10.625 7.1875 C9.73554687 7.21263672 8.84609375 7.23777344 7.9296875 7.26367188 C6.65351562 7.27817383 6.65351562 7.27817383 5.3515625 7.29296875 C4.17327881 7.31653442 4.17327881 7.31653442 2.97119141 7.34057617 C2.32069824 7.22818604 1.67020508 7.1157959 1 7 C0.34 6.01 -0.32 5.02 -1 4 C-2.32 4.33 -3.64 4.66 -5 5 C-3.35 3.35 -1.7 1.7 0 0 Z " fill="#8153E6" transform="translate(656,495)"/>
<path d="M0 0 C0.99 0.33 1.98 0.66 3 1 C2.34 1 1.68 1 1 1 C0.896875 1.61875 0.79375 2.2375 0.6875 2.875 C0 5 0 5 -3 7 C-2.38722388 4.03824877 -1.74627478 2.61941217 0 0 Z " fill="#CAB4F2" transform="translate(835,596)"/>
<path d="M0 0 C0.99 0.33 1.98 0.66 3 1 C2.01 1 1.02 1 0 1 C0 0.67 0 0.34 0 0 Z " fill="#F1EAFF" transform="translate(460,477)"/>
<path d="" fill="#F2E5FF" transform="translate(0,0)"/>
<path d="" fill="#F2EAFF" transform="translate(0,0)"/>
<path d="" fill="#F2F3FF" transform="translate(0,0)"/>
<path d="" fill="#F6F0FF" transform="translate(0,0)"/>
<path d="" fill="#F3ECFF" transform="translate(0,0)"/>
<path d="" fill="#8556FF" transform="translate(0,0)"/>
<path d="" fill="#F0E0FF" transform="translate(0,0)"/>
<path d="" fill="#F6F1FF" transform="translate(0,0)"/>
<path d="" fill="#FBF0FF" transform="translate(0,0)"/>
<path d="" fill="#F3ECFF" transform="translate(0,0)"/>
<path d="" fill="#F8F4FE" transform="translate(0,0)"/>
<path d="" fill="#7746FF" transform="translate(0,0)"/>
<path d="" fill="#7A48FF" transform="translate(0,0)"/>
<path d="" fill="#FAF5FF" transform="translate(0,0)"/>
<path d="" fill="#F2E5FF" transform="translate(0,0)"/>
<path d="" fill="#F7F4FF" transform="translate(0,0)"/>
<path d="" fill="#FAF6FF" transform="translate(0,0)"/>
<path d="" fill="#FDF9FF" transform="translate(0,0)"/>
<path d="" fill="#F5F1FF" transform="translate(0,0)"/>
<path d="" fill="#F5F0FF" transform="translate(0,0)"/>
<path d="" fill="#FBF3FF" transform="translate(0,0)"/>
<path d="" fill="#F4F1FF" transform="translate(0,0)"/>
<path d="" fill="#EDE0FF" transform="translate(0,0)"/>
<path d="" fill="#F0E8FF" transform="translate(0,0)"/>
<path d="" fill="#FCF9FF" transform="translate(0,0)"/>
<path d="" fill="#F7EFFF" transform="translate(0,0)"/>
<path d="" fill="#F8F6FF" transform="translate(0,0)"/>
<path d="" fill="#FAF6FF" transform="translate(0,0)"/>
<path d="" fill="#7744FF" transform="translate(0,0)"/>
<path d="" fill="#EDE6FF" transform="translate(0,0)"/>
<path d="" fill="#F3E8FF" transform="translate(0,0)"/>
<path d="" fill="#F7F3FF" transform="translate(0,0)"/>
<path d="" fill="#F8F1FF" transform="translate(0,0)"/>
<path d="" fill="#F5F0FF" transform="translate(0,0)"/>
<path d="" fill="#FAF2FF" transform="translate(0,0)"/>
<path d="" fill="#F7ECFF" transform="translate(0,0)"/>
<path d="" fill="#F3EAFF" transform="translate(0,0)"/>
<path d="" fill="#F4E8FF" transform="translate(0,0)"/>
<path d="" fill="#FAEFFF" transform="translate(0,0)"/>
<path d="" fill="#F5F1FD" transform="translate(0,0)"/>
<path d="" fill="#F4F1FF" transform="translate(0,0)"/>
<path d="" fill="#F9F5FF" transform="translate(0,0)"/>
<path d="" fill="#F4EFFF" transform="translate(0,0)"/>
<path d="" fill="#F3F2FF" transform="translate(0,0)"/>
<path d="" fill="#F4EFFF" transform="translate(0,0)"/>
<path d="" fill="#F1E8FF" transform="translate(0,0)"/>
<path d="" fill="#EDE4FF" transform="translate(0,0)"/>
<path d="" fill="#7848FF" transform="translate(0,0)"/>
<path d="" fill="#7845FF" transform="translate(0,0)"/>
<path d="" fill="#7748FF" transform="translate(0,0)"/>
</svg>
