<?xml version="1.0" encoding="UTF-8"?>
<svg version="1.1" xmlns="http://www.w3.org/2000/svg" width="469" height="480">
<path d="M0 0 C0.85172791 0.00182281 1.70345581 0.00364563 2.58099365 0.00552368 C59.92852461 0.21138524 115.83162429 20.93925135 157.85546875 60.37890625 C159.84633687 62.34683563 159.84633687 62.34683563 162 63.3125 C162 63.9725 162 64.6325 162 65.3125 C162.59683594 65.57417969 163.19367188 65.83585937 163.80859375 66.10546875 C166.14283074 67.39117148 167.3599093 68.59147096 169.0625 70.625 C169.66449219 71.33914062 170.26648438 72.05328125 170.88671875 72.7890625 C171.93279297 74.03816406 171.93279297 74.03816406 173 75.3125 C173.85207031 76.28960937 174.70414062 77.26671875 175.58203125 78.2734375 C203.32693491 110.17565403 220.62411714 148.81293737 228 190.3125 C228.19480957 191.34769775 228.19480957 191.34769775 228.39355469 192.40380859 C238.06172821 245.66000814 222.39126223 305.03314343 192.359375 349.26171875 C189.98381291 352.67319947 187.51376368 356.00158642 185 359.3125 C184.33484375 360.19035156 183.6696875 361.06820313 182.984375 361.97265625 C177.69570534 368.75548258 171.90880788 375.07224237 166 381.3125 C165.1234375 382.24320312 164.246875 383.17390625 163.34375 384.1328125 C155.2070187 392.53279099 146.20320379 400.50393455 136 406.3125 C135.03501524 397.79221741 134.59054616 389.28858746 134.33959961 380.71948242 C134.15718638 373.87191384 134.15718638 373.87191384 133.4453125 367.06640625 C132.96927042 362.78688511 132.58623507 359.30412024 135.18505859 355.64306641 C137.95266812 352.50418131 141.01649335 349.72849748 144.125 346.93359375 C171.90975333 321.77768443 187.93679989 276.97077266 190 240.3125 C191.90308017 194.4238315 180.19849565 150.05599433 152 113.3125 C151.38125 112.4875 150.7625 111.6625 150.125 110.8125 C119.95050771 72.15143176 75.29159879 48.10656096 27 41.3125 C26.36570068 41.2189624 25.73140137 41.1254248 25.07788086 41.02905273 C-24.54112753 34.51520205 -76.73366966 48.54072098 -116.42236328 78.82714844 C-122.59867087 83.66731848 -128.35190359 88.86698955 -134 94.3125 C-134.82628906 95.075625 -135.65257812 95.83875 -136.50390625 96.625 C-149.70214945 109.16650879 -159.49749087 124.33010854 -168 140.3125 C-168.36963867 140.99715332 -168.73927734 141.68180664 -169.12011719 142.38720703 C-191.26878641 184.02058112 -194.36210092 235.14314706 -181.21386719 279.99414062 C-173.04300639 306.19960794 -159.69772393 332.74862714 -139.5390625 351.80859375 C-137.91858621 353.39205408 -136.50071414 355.06280099 -135.0625 356.8125 C-131.72020407 360.75850907 -127.99514022 364.03953272 -124 367.3125 C-122.66388672 368.42238281 -122.66388672 368.42238281 -121.30078125 369.5546875 C-93.16415427 392.10722078 -59.82018947 405.05611914 -24 408.3125 C-23.731875 407.70535156 -23.46375 407.09820312 -23.1875 406.47265625 C-20.50777874 401.59803172 -15.38664867 399.23223755 -10.3125 397.5 C-0.3820343 394.88196813 8.83035537 395.65883651 18 400.3125 C27.0455945 405.8197547 32.86096751 413.44306556 35.53125 423.7109375 C37.59421284 435.16038127 34.98114262 445.25527691 28.79296875 454.98828125 C25.74906268 458.93408541 22.19200498 461.66528747 18 464.3125 C17.32324219 464.74691406 16.64648438 465.18132812 15.94921875 465.62890625 C8.27919059 469.77447702 -0.69537171 469.33548706 -9.05859375 467.72265625 C-16.39760683 465.46369761 -21.98212373 461.06382699 -27 455.3125 C-27.56229634 454.08548965 -28.11664319 452.8548132 -28.6640625 451.62109375 C-29.9269492 449.31610039 -30.54697675 448.48157582 -33.03637695 447.55249023 C-35.67367292 447.11369212 -38.27048654 446.87423924 -40.9375 446.6875 C-42.93317861 446.47970271 -44.92798093 446.26333743 -46.921875 446.0390625 C-48.44264648 445.87132324 -48.44264648 445.87132324 -49.99414062 445.70019531 C-88.27372661 440.76289978 -125.86080915 420.39300011 -153.8515625 394.30859375 C-155.81040872 392.48864754 -157.82295875 390.77532627 -159.875 389.0625 C-177.45545585 373.58748796 -191.01598684 353.83717253 -202 333.3125 C-202.55010742 332.30074707 -202.55010742 332.30074707 -203.11132812 331.26855469 C-212.99154667 312.97286455 -219.38680574 293.53841425 -224 273.3125 C-224.16870605 272.5817627 -224.33741211 271.85102539 -224.51123047 271.09814453 C-236.99783784 215.17050916 -224.15671772 153.55555204 -194 105.3125 C-191.46429601 101.53462793 -188.76934253 97.92052553 -186 94.3125 C-184.70669694 92.48032067 -183.4150595 90.6469646 -182.125 88.8125 C-178.51987171 83.84748049 -174.5442711 79.3488045 -170.36328125 74.86328125 C-168.38196482 72.72476946 -166.49533705 70.54689292 -164.625 68.3125 C-150.52652452 52.22326757 -132.42548461 39.88631227 -114 29.3125 C-113.36384766 28.94286133 -112.72769531 28.57322266 -112.07226562 28.19238281 C-88.55502181 14.63435437 -61.76376031 6.32132075 -35 2.3125 C-33.83839355 2.13517334 -32.67678711 1.95784668 -31.47998047 1.77514648 C-20.96235815 0.30377945 -10.6115755 -0.04734647 0 0 Z M-6 427.3125 C-7.11417029 431.14246037 -7.30045669 433.39109949 -6.0625 437.1875 C-3.4681034 439.86051467 -1.66986088 440.33773961 1.9921875 440.57421875 C4.32358876 440.42525594 4.32358876 440.42525594 7 438.25 C9.3236847 434.8370881 9.60190436 433.35385782 9 429.3125 C7.79293121 425.96984795 7.07943151 425.36545434 4 423.3125 C-0.60720892 422.58504596 -2.88049885 423.93304042 -6 427.3125 Z " fill="#8B58FE" transform="translate(235,7.6875)"/>
<path d="M0 0 C28.85793765 25.30071883 45.35368696 60.81668042 48.28125 98.875 C50.4128985 134.50985707 38.43650613 169.6854276 16.00488281 197.27587891 C14.53515625 198.91015625 14.53515625 198.91015625 11.58984375 201.390625 C6.96154483 205.32665699 4.43287784 208.72637829 3.73046875 214.796875 C3.38008823 220.54503543 3.43807875 226.29249382 3.50195312 232.04833984 C3.59050355 241.44239606 3.41742055 250.83704407 3.26931763 260.22973633 C3.22306985 263.69169537 3.20476805 267.15301801 3.18920898 270.61523438 C3.16355504 272.78256363 3.13698253 274.94988225 3.109375 277.1171875 C3.11236603 278.6157 3.11236603 278.6157 3.11541748 280.14448547 C3.01070862 286.04644536 2.41669266 289.38750756 -1.46484375 293.91015625 C-4.76744299 296.81244043 -7.34641823 297.82574678 -11.77734375 298.16015625 C-18.94213341 297.6744078 -23.72155167 293.33347871 -29.02734375 288.91015625 C-29.72625732 288.33491211 -30.4251709 287.75966797 -31.14526367 287.16699219 C-36.09283243 283.08385598 -40.99915474 278.95145097 -45.88330078 274.79272461 C-49.19038731 271.97764801 -52.53084626 269.21015494 -55.90234375 266.47265625 C-60.94456389 262.37353178 -65.87563781 258.15367384 -70.78295898 253.89477539 C-75.66564393 249.67452682 -78.09938527 247.64729019 -84.6171875 247.8203125 C-86.47947998 247.85390869 -86.47947998 247.85390869 -88.37939453 247.88818359 C-89.36410736 247.91002716 -89.36410736 247.91002716 -90.36871338 247.93231201 C-128.38090344 248.68641801 -159.7478023 237.43943177 -189.46484375 213.91015625 C-190.41617188 213.19214844 -191.3675 212.47414063 -192.34765625 211.734375 C-193.04632813 211.13238281 -193.745 210.53039062 -194.46484375 209.91015625 C-194.46484375 209.25015625 -194.46484375 208.59015625 -194.46484375 207.91015625 C-195.12484375 207.91015625 -195.78484375 207.91015625 -196.46484375 207.91015625 C-199.01264218 205.44498912 -201.20167914 202.63573563 -203.46484375 199.91015625 C-204.11066406 199.15089844 -204.75648438 198.39164063 -205.421875 197.609375 C-229.11068596 169.06132077 -240.1935797 131.99188517 -237.24658203 95.18408203 C-235.00291654 73.57155032 -228.85160118 53.56215137 -217.96484375 34.72265625 C-215.56455869 30.48837322 -215.19684512 27.82346448 -215.46484375 22.91015625 C-214.20489704 14.82211125 -210.58077812 9.27720069 -204.46484375 3.91015625 C-198.72547037 0.57088447 -192.44769014 -0.81782625 -185.87890625 0.3828125 C-176.92530257 2.84303693 -172.31555664 6.46378445 -167.6640625 14.47265625 C-164.97516081 19.938046 -164.63072118 25.51522425 -166.078125 31.40625 C-168.32568728 37.91130912 -171.59917789 42.25055804 -177.46484375 45.91015625 C-179.76483681 46.7976741 -181.97974601 47.48357006 -184.38671875 48.01171875 C-191.30025438 51.00065333 -194.65629699 61.29668965 -197.46484375 67.91015625 C-205.98530485 90.34772953 -207.64092167 114.86915722 -200.46484375 137.91015625 C-200.25053711 138.59899902 -200.03623047 139.2878418 -199.81542969 139.99755859 C-194.83071795 155.45596958 -187.00318399 169.73361513 -175.19921875 181.08984375 C-173.46484375 182.91015625 -173.46484375 182.91015625 -173.46484375 184.91015625 C-172.87574219 185.17570313 -172.28664063 185.44125 -171.6796875 185.71484375 C-169.40672021 186.94152451 -167.88691024 188.25427965 -166.02734375 190.03515625 C-145.26069528 208.53285609 -115.78698692 216.43130341 -88.46484375 214.91015625 C-85.10555171 214.48567055 -81.79249426 213.97159072 -78.46484375 213.34765625 C-69.86749538 212.09387628 -69.86749538 212.09387628 -65.8671875 214.421875 C-65.05378906 215.13988281 -64.24039063 215.85789062 -63.40234375 216.59765625 C-62.46261719 217.41621094 -61.52289063 218.23476563 -60.5546875 219.078125 C-56.5624739 222.7110523 -52.61267892 226.3909973 -48.67993164 230.08813477 C-42.26041829 236.10205601 -35.51168739 241.64309948 -28.46484375 246.91015625 C-28.46928497 246.33466034 -28.4737262 245.75916443 -28.478302 245.16622925 C-28.52262882 239.16390471 -28.552749 233.16162686 -28.57470703 227.15917969 C-28.58475007 224.9205537 -28.59838706 222.68194077 -28.61572266 220.44335938 C-28.64004532 217.2213213 -28.65134401 213.99945704 -28.66015625 210.77734375 C-28.67047882 209.78024384 -28.68080139 208.78314392 -28.69143677 207.75582886 C-28.69244766 201.46194081 -28.60558107 196.3086787 -24.2265625 191.40234375 C-23.31519531 190.57992187 -22.40382813 189.7575 -21.46484375 188.91015625 C1.40196464 167.54744177 13.68939681 141.98512876 15.7578125 110.5234375 C16.60164429 78.93477805 4.24957851 51.84832689 -16.6171875 28.7734375 C-18.33608437 26.8411112 -18.33608437 26.8411112 -20.46484375 25.91015625 C-20.46484375 25.25015625 -20.46484375 24.59015625 -20.46484375 23.91015625 C-20.985625 23.67683594 -21.50640625 23.44351563 -22.04296875 23.203125 C-24.61748229 21.82866696 -26.95094971 20.21219747 -29.33496094 18.53393555 C-53.85091597 1.43326094 -84.69885608 -5.05779849 -114.21484375 0.03515625 C-123.95051206 1.87890022 -133.420983 5.13934847 -142.62841797 8.76123047 C-147.65470692 10.73157289 -151.33024735 11.86288886 -156.46484375 9.91015625 C-160.59231221 7.24844956 -163.67629703 4.36108222 -166.02734375 0.03515625 C-166.81492653 -5.59043506 -166.53218392 -10.10220789 -163.8203125 -15.15234375 C-154.40929734 -26.88880047 -129.17808469 -31.71109433 -114.77734375 -33.6171875 C-72.45091963 -38.0081374 -32.64984418 -27.68251448 0 0 Z " fill="#8B57FE" transform="translate(330.46484375,125.08984375)"/>
<path d="M0 0 C4.0434791 3.69459484 7.03196961 7.51449447 8 13 C8.19128651 20.08955637 6.68184388 25.59403093 2 31 C-4.1467797 35.79448817 -9.37910551 36.80279452 -17 36 C-23.85239335 33.92531343 -27.82089861 29.83936912 -31.3125 23.6875 C-33.05533704 16.87459159 -32.35333803 11.22762777 -29 5 C-26.07193145 0.70549947 -23.06167829 -1.83867375 -18.1875 -3.6875 C-11.04602484 -4.70771074 -5.95398005 -4.19484958 0 0 Z " fill="#8B58FE" transform="translate(248,210)"/>
<path d="M0 0 C4.61783318 3.22055524 7.36498463 8.21995388 9.1171875 13.4765625 C9.76482604 19.82342015 8.15439773 24.96285778 5.1171875 30.4765625 C1.53839671 34.6926722 -3.04642093 37.07378642 -8.49609375 37.84765625 C-15.3247719 38.01565557 -19.66259724 36.96866263 -24.8828125 32.4765625 C-29.25690614 27.98736113 -30.65954138 23.78369741 -31.2578125 17.6015625 C-31.08592486 11.60841357 -28.293666 7.19246541 -24.5703125 2.6640625 C-16.8552322 -3.61565402 -8.74606316 -4.20658401 0 0 Z " fill="#8B58FE" transform="translate(304.8828125,208.5234375)"/>
<path d="M0 0 C4.9734173 2.73155381 7.79958273 5.67881591 9.8125 11 C11.57072579 17.39449974 10.97299666 22.70200041 8.2578125 28.73046875 C5.28615983 33.39676659 1.00220784 36.27009739 -4.1875 38 C-10.91062612 38.72843818 -16.76819648 38.31687561 -22.1875 34 C-26.42426255 29.38479025 -29.05734676 24.58139449 -29.35546875 18.265625 C-28.94359732 12.71014985 -27.35701017 8.41572284 -23.8125 4.125 C-16.23641982 -2.00801729 -9.09500718 -4.045242 0 0 Z " fill="#8B58FE" transform="translate(187.1875,208)"/>
<path d="M0 0 C0.33 0 0.66 0 1 0 C1.33 4.95 1.66 9.9 2 15 C1.67 15 1.34 15 1 15 C1 24.9 1 34.8 1 45 C1.33 45 1.66 45 2 45 C1.67 49.62 1.34 54.24 1 59 C0.67 59 0.34 59 0 59 C-2.07463825 38.97574216 -1.79364966 20.00265084 0 0 Z " fill="#9F6EFE" transform="translate(8,205)"/>
<path d="M0 0 C0.33 0 0.66 0 1 0 C2.11089818 13.27072956 1.68390291 25.79319125 0 39 C-0.33 39 -0.66 39 -1 39 C-1.33 34.71 -1.66 30.42 -2 26 C-1.67 26 -1.34 26 -1 26 C-0.67 17.42 -0.34 8.84 0 0 Z " fill="#A770FE" transform="translate(377,216)"/>
<path d="M0 0 C0.33 0 0.66 0 1 0 C1 4.62 1 9.24 1 14 C0.34 14 -0.32 14 -1 14 C-1.33 15.32 -1.66 16.64 -2 18 C-1.85860519 15.74971671 -1.71171997 13.49977794 -1.5625 11.25 C-1.48128906 9.99703125 -1.40007812 8.7440625 -1.31640625 7.453125 C-1.07484478 4.81682447 -0.75716066 2.51962706 0 0 Z " fill="#7C47FE" transform="translate(461,258)"/>
<path d="M0 0 C1.485 0.99 1.485 0.99 3 2 C3.2487793 4.06298828 3.2487793 4.06298828 3.07421875 6.5703125 C3.01943359 7.46621094 2.96464844 8.36210937 2.90820312 9.28515625 C2.83537109 10.22230469 2.76253906 11.15945312 2.6875 12.125 C2.62626953 13.06988281 2.56503906 14.01476562 2.50195312 14.98828125 C2.34841324 17.32681186 2.18053924 19.66342389 2 22 C1.67 22 1.34 22 1 22 C0.67 14.74 0.34 7.48 0 0 Z " fill="#9D67FE" transform="translate(346,217)"/>
<path d="M0 0 C1.1171875 1.671875 1.1171875 1.671875 2 4 C1.3203125 6.578125 1.3203125 6.578125 0.125 9.25 C-0.26429687 10.14203125 -0.65359375 11.0340625 -1.0546875 11.953125 C-1.36664062 12.62859375 -1.67859375 13.3040625 -2 14 C-2.66 14 -3.32 14 -4 14 C-3.00956295 9.16371695 -2.04301154 4.52381127 0 0 Z " fill="#9361FE" transform="translate(22,151)"/>
<path d="M0 0 C0.33 0 0.66 0 1 0 C1.33 2.31 1.66 4.62 2 7 C2.33 7 2.66 7 3 7 C2.67 11.62 2.34 16.24 2 21 C1.67 21 1.34 21 1 21 C0.06145994 13.96094956 -0.10808032 7.09727428 0 0 Z " fill="#AA77FE" transform="translate(7,243)"/>
<path d="M0 0 C0.33 0 0.66 0 1 0 C2.19088986 5.38027025 3.2919519 10.45291384 3 16 C0 14 0 14 -0.546875 12.01171875 C-0.9144629 7.80566494 -1.19599343 4.11953294 0 0 Z " fill="#9764FE" transform="translate(460,188)"/>
<path d="M0 0 C0.99 0.33 1.98 0.66 3 1 C3.66 4.63 4.32 8.26 5 12 C4.01 12.495 4.01 12.495 3 13 C-0.42857143 4.57142857 -0.42857143 4.57142857 0 0 Z " fill="#9360FE" transform="translate(158,224)"/>
<path d="M0 0 C2.97 1.32 5.94 2.64 9 4 C9 4.66 9 5.32 9 6 C9.66 6.33 10.32 6.66 11 7 C6.14036821 6.39254603 2.2594482 4.27241033 -2 2 C-1.34 1.34 -0.68 0.68 0 0 Z " fill="#9B5DFE" transform="translate(169,355)"/>
<path d="M0 0 C-3.23931347 2.86554653 -5.69919493 3.66916884 -10 4 C-12.70167686 3.79030306 -15.31796155 3.41617838 -18 3 C-18 2.67 -18 2.34 -18 2 C-16.12612523 1.6603981 -14.25083303 1.32861309 -12.375 1 C-11.33085937 0.814375 -10.28671875 0.62875 -9.2109375 0.4375 C-6.09425135 0.01284203 -3.14069188 -0.07545206 0 0 Z " fill="#A975FE" transform="translate(261,338)"/>
<path d="M0 0 C0.66 0.33 1.32 0.66 2 1 C0.25 4 0.25 4 -2 7 C-3.32 7 -4.64 7 -6 7 C-6 6.34 -6 5.68 -6 5 C-7.65 5 -9.3 5 -11 5 C-11 4.67 -11 4.34 -11 4 C-8.03 4 -5.06 4 -2 4 C-1.34 2.68 -0.68 1.36 0 0 Z " fill="#9C68FE" transform="translate(213,412)"/>
<path d="M0 0 C4.10958767 1.45044271 7.43258745 3.51110752 11 6 C9.375 6.75 9.375 6.75 7 7 C1.288 3.864 1.288 3.864 0 0 Z " fill="#965FFE" transform="translate(308,110)"/>
<path d="M0 0 C2.375 0.1875 2.375 0.1875 5 1 C6.92164209 4.05715786 7.03249175 5.7129895 6.625 9.3125 C6.41875 10.199375 6.2125 11.08625 6 12 C5.67 12 5.34 12 5 12 C4.34 8.7 3.68 5.4 3 2 C2.01 1.67 1.02 1.34 0 1 C0 0.67 0 0.34 0 0 Z " fill="#9F6CFE" transform="translate(239,431)"/>
<path d="M0 0 C1.90389849 2.85584773 2.69462177 4.9311762 3.625 8.1875 C3.88539063 9.08855469 4.14578125 9.98960937 4.4140625 10.91796875 C4.60742188 11.60503906 4.80078125 12.29210937 5 13 C1.52933838 9.99209327 0.04871864 7.48088874 -1 3 C-0.67 2.01 -0.34 1.02 0 0 Z " fill="#9561FE" transform="translate(449,151)"/>
<path d="M0 0 C-5.77759884 0.12036664 -11.27959989 -0.1679418 -17 -1 C-17 -1.33 -17 -1.66 -17 -2 C-15.58456585 -2.19658808 -14.16755969 -2.38187546 -12.75 -2.5625 C-11.96109375 -2.66691406 -11.1721875 -2.77132813 -10.359375 -2.87890625 C-6.35086579 -3.08464099 -3.49643774 -1.87309165 0 0 Z " fill="#AB78FE" transform="translate(204,455)"/>
<path d="M0 0 C0.33 0 0.66 0 1 0 C1.87890625 6.15234375 1.87890625 6.15234375 2 8 C1.67 8.33 1.34 8.66 1 9 C0.63239269 11.32817964 0.29758419 13.6618385 0 16 C-0.33 16 -0.66 16 -1 16 C-1.02712153 14.083412 -1.04645097 12.1667127 -1.0625 10.25 C-1.07410156 9.18265625 -1.08570313 8.1153125 -1.09765625 7.015625 C-1.01510087 4.46631499 -0.74617558 2.42066409 0 0 Z " fill="#7943FE" transform="translate(10,199)"/>
<path d="M0 0 C3.91211733 1.15585285 6.8745041 2.35534962 10 5 C7 6 7 6 3.875 4.75 C1 3 1 3 0 0 Z " fill="#9761FE" transform="translate(180,327)"/>
<path d="M0 0 C0.33 0 0.66 0 1 0 C0.88601335 1.62580966 0.75844341 3.25067157 0.625 4.875 C0.52058594 6.23238281 0.52058594 6.23238281 0.4140625 7.6171875 C0 10 0 10 -2 12 C-3.17790906 8.46627283 -2.82375082 6.59454905 -2 3 C-1.34 2.01 -0.68 1.02 0 0 Z " fill="#9765FE" transform="translate(255,223)"/>
<path d="M0 0 C1.80411967 2.75924185 2.0127245 3.88972103 1.625 7.25 C1.41875 8.1575 1.2125 9.065 1 10 C0.34 10 -0.32 10 -1 10 C-1.33 10.66 -1.66 11.32 -2 12 C-1 3.42857143 -1 3.42857143 0 0 Z " fill="#9665FE" transform="translate(98,194)"/>
<path d="M0 0 C3.63 0 7.26 0 11 0 C7.52630934 1.73684533 5.92380063 2.30084112 2.25 2.625 C1.45078125 2.69976562 0.6515625 2.77453125 -0.171875 2.8515625 C-0.77515625 2.90054688 -1.3784375 2.94953125 -2 3 C-1.34 2.67 -0.68 2.34 0 2 C0 1.34 0 0.68 0 0 Z " fill="#814BFE" transform="translate(203,94)"/>
<path d="M0 0 C2.9375 0.3125 2.9375 0.3125 4.9375 2.3125 C1.3075 2.6425 -2.3225 2.9725 -6.0625 3.3125 C-3.0625 0.3125 -3.0625 0.3125 0 0 Z " fill="#834DFE" transform="translate(236.0625,428.6875)"/>
<path d="M0 0 C4.95 0.33 9.9 0.66 15 1 C15 1.33 15 1.66 15 2 C4.44191344 3.51708428 4.44191344 3.51708428 0 1 C0 0.67 0 0.34 0 0 Z " fill="#773EFE" transform="translate(208,369)"/>
<path d="M0 0 C0 3.57575896 -1.08840607 5.05295935 -3 8 C-4.32 7.67 -5.64 7.34 -7 7 C-4.69 4.69 -2.38 2.38 0 0 Z " fill="#9E69FE" transform="translate(377,357)"/>
<path d="M0 0 C0.33 0.66 0.66 1.32 1 2 C1.66 2 2.32 2 3 2 C3 2.99 3 3.98 3 5 C3.66 5 4.32 5 5 5 C5 5.66 5 6.32 5 7 C4.34 7 3.68 7 3 7 C2.67 7.99 2.34 8.98 2 10 C1.34 6.7 0.68 3.4 0 0 Z " fill="#9964FE" transform="translate(15,294)"/>
<path d="M0 0 C1.60080151 4.00200378 0.29279692 7.04556236 -1 11 C-3 8 -3 8 -2.75 4.9375 C-2 2 -2 2 0 0 Z " fill="#9864FE" transform="translate(374,261)"/>
<path d="M0 0 C2.83374881 3.20336822 3.5205537 5.78087253 4 10 C1.2027092 7.93243723 0.97307727 6.85559629 0.3125 3.3125 C0.209375 2.219375 0.10625 1.12625 0 0 Z " fill="#9465FE" transform="translate(29,329)"/>
<path d="M0 0 C3.40424844 1.13474948 4.21653709 1.96811304 6 5 C5.67 5.99 5.34 6.98 5 8 C0 2.25 0 2.25 0 0 Z " fill="#945EFE" transform="translate(218,234)"/>
<path d="M0 0 C1.41687119 4.25061356 0.19320039 6.71851625 -1 11 C-2.61949011 8.42786866 -3.04408751 7.32330841 -2.625 4.25 C-2.41875 3.5075 -2.2125 2.765 -2 2 C-1.34 2 -0.68 2 0 2 C0 1.34 0 0.68 0 0 Z " fill="#9B67FE" transform="translate(128,202)"/>
<path d="M0 0 C3.55780196 0.60990891 6.6828589 1.5783681 10 3 C10 3.33 10 3.66 10 4 C7.69 4 5.38 4 3 4 C2.67 3.01 2.34 2.02 2 1 C1.34 0.67 0.68 0.34 0 0 Z " fill="#9D68FE" transform="translate(152,402)"/>
<path d="M0 0 C2.33944736 0.28730055 4.6739143 0.61936779 7 1 C3.25 3 3.25 3 1 3 C-0.62514468 4.45833358 -0.62514468 4.45833358 -2 6 C-1.125 1.125 -1.125 1.125 0 0 Z " fill="#AA79FE" transform="translate(142,171)"/>
<path d="M0 0 C0.99 0.33 1.98 0.66 3 1 C4.1875 4.0625 4.1875 4.0625 5 7 C4.34 7.66 3.68 8.32 3 9 C2.01 6.03 1.02 3.06 0 0 Z " fill="#9764FE" transform="translate(409,156)"/>
<path d="M0 0 C1.65 0.99 3.3 1.98 5 3 C4.67 4.32 4.34 5.64 4 7 C2 5.1875 2 5.1875 0 3 C0 2.01 0 1.02 0 0 Z " fill="#814CFE" transform="translate(348,147)"/>
<path d="M0 0 C0.93423645 3.01031744 1.04449911 3.86650268 0 7 C-0.66 7 -1.32 7 -2 7 C-2.33 7.99 -2.66 8.98 -3 10 C-2.25 3.375 -2.25 3.375 0 0 Z " fill="#9B65FE" transform="translate(119,137)"/>
<path d="M0 0 C3.1875 0.875 3.1875 0.875 6 2 C6 2.66 6 3.32 6 4 C1.545 3.01 1.545 3.01 -3 2 C-2.01 1.34 -1.02 0.68 0 0 Z " fill="#9963FE" transform="translate(188,363)"/>
<path d="M0 0 C2.5 1.1875 2.5 1.1875 5 3 C5.3125 5.6875 5.3125 5.6875 5 8 C2.74754119 5.31158141 1.11786042 3.35358125 0 0 Z " fill="#9863FE" transform="translate(392,126)"/>
<path d="M0 0 C0 0.66 0 1.32 0 2 C-2.64 2.66 -5.28 3.32 -8 4 C-7.67 3.01 -7.34 2.02 -7 1 C-4 0 -4 0 0 0 Z " fill="#9562FE" transform="translate(178,54)"/>
<path d="" fill="#7F7FFF" transform="translate(0,0)"/>
<path d="" fill="#7F7FFF" transform="translate(0,0)"/>
<path d="" fill="#FF00FF" transform="translate(0,0)"/>
<path d="" fill="#AA55FF" transform="translate(0,0)"/>
<path d="" fill="#FF00FF" transform="translate(0,0)"/>
<path d="" fill="#FF00FF" transform="translate(0,0)"/>
<path d="" fill="#FF00FF" transform="translate(0,0)"/>
<path d="" fill="#7F7FFF" transform="translate(0,0)"/>
<path d="" fill="#7F7FFF" transform="translate(0,0)"/>
</svg>
